<mxfile host="app.diagrams.net" modified="2023-07-12T08:38:12.193Z" agent="Mozilla/5.0 (X11; Linux x86_64) AppleWebKit/537.36 (KHTML, like Gecko) Chrome/114.0.0.0 Safari/537.36" etag="PktpC2bYexLySf38IAcs" version="21.2.7" type="device">
  <diagram name="PÃ¡gina-1" id="5P0YDSgv_1YmpBdBlELc">
    <mxGraphModel dx="1985" dy="674" grid="1" gridSize="10" guides="1" tooltips="1" connect="1" arrows="1" fold="1" page="1" pageScale="1" pageWidth="827" pageHeight="1169" math="0" shadow="0">
      <root>
        <mxCell id="0" />
        <mxCell id="1" parent="0" />
        <mxCell id="8I5c6mLCa8-BuqHAruNU-40" value="" style="shape=flexArrow;endArrow=classic;html=1;rounded=0;" edge="1" parent="1">
          <mxGeometry width="50" height="50" relative="1" as="geometry">
            <mxPoint x="477.16" y="261" as="sourcePoint" />
            <mxPoint x="477.16" y="301" as="targetPoint" />
          </mxGeometry>
        </mxCell>
        <mxCell id="8I5c6mLCa8-BuqHAruNU-1" value="" style="shape=mxgraph.signs.travel.car_rental;html=1;pointerEvents=1;fillColor=#000000;strokeColor=none;verticalLabelPosition=bottom;verticalAlign=top;align=center;" vertex="1" parent="1">
          <mxGeometry x="120" y="177.1" width="75" height="101" as="geometry" />
        </mxCell>
        <mxCell id="8I5c6mLCa8-BuqHAruNU-7" value="" style="shape=image;html=1;verticalAlign=top;verticalLabelPosition=bottom;labelBackgroundColor=#ffffff;imageAspect=0;aspect=fixed;image=https://cdn2.iconfinder.com/data/icons/brush-set-free/512/broom_stick_3-128.png" vertex="1" parent="1">
          <mxGeometry x="508.5" y="313.70000000000005" width="58" height="58" as="geometry" />
        </mxCell>
        <mxCell id="8I5c6mLCa8-BuqHAruNU-8" value="" style="image;points=[];aspect=fixed;html=1;align=center;shadow=0;dashed=0;image=img/lib/allied_telesis/buildings/Secure_Building.svg;" vertex="1" parent="1">
          <mxGeometry x="623.22" y="220" width="77.15" height="52.75" as="geometry" />
        </mxCell>
        <mxCell id="8I5c6mLCa8-BuqHAruNU-9" value="Cleaning Company" style="text;html=1;strokeColor=none;fillColor=none;align=center;verticalAlign=middle;whiteSpace=wrap;rounded=0;" vertex="1" parent="1">
          <mxGeometry x="422.90000000000003" y="371.70000000000005" width="143.6" height="30" as="geometry" />
        </mxCell>
        <mxCell id="8I5c6mLCa8-BuqHAruNU-10" value="Security Company" style="text;html=1;strokeColor=none;fillColor=none;align=center;verticalAlign=middle;whiteSpace=wrap;rounded=0;" vertex="1" parent="1">
          <mxGeometry x="590" y="270" width="143.6" height="30" as="geometry" />
        </mxCell>
        <mxCell id="8I5c6mLCa8-BuqHAruNU-11" value="Rental Company" style="text;html=1;strokeColor=none;fillColor=none;align=center;verticalAlign=middle;whiteSpace=wrap;rounded=0;" vertex="1" parent="1">
          <mxGeometry x="414" y="182.50000000000006" width="143.6" height="30" as="geometry" />
        </mxCell>
        <mxCell id="8I5c6mLCa8-BuqHAruNU-12" value="" style="image;points=[];aspect=fixed;html=1;align=center;shadow=0;dashed=0;image=img/lib/allied_telesis/buildings/Large_Building.svg;" vertex="1" parent="1">
          <mxGeometry x="448.3" y="107.5" width="75" height="75" as="geometry" />
        </mxCell>
        <mxCell id="8I5c6mLCa8-BuqHAruNU-13" value="" style="image;points=[];aspect=fixed;html=1;align=center;shadow=0;dashed=0;image=img/lib/allied_telesis/buildings/Medium_Business_Building.svg;" vertex="1" parent="1">
          <mxGeometry x="450.1" y="308.1" width="54.6" height="70.19999999999999" as="geometry" />
        </mxCell>
        <mxCell id="8I5c6mLCa8-BuqHAruNU-14" value="Car Rental" style="text;html=1;strokeColor=none;fillColor=none;align=center;verticalAlign=middle;whiteSpace=wrap;rounded=0;" vertex="1" parent="1">
          <mxGeometry x="85.69999999999999" y="278.1" width="143.6" height="30" as="geometry" />
        </mxCell>
        <mxCell id="8I5c6mLCa8-BuqHAruNU-15" value="" style="shape=mxgraph.signs.people.man_1;html=1;pointerEvents=1;fillColor=#000000;strokeColor=none;verticalLabelPosition=bottom;verticalAlign=top;align=center;" vertex="1" parent="1">
          <mxGeometry x="-100" y="175.29999999999998" width="50" height="132.8" as="geometry" />
        </mxCell>
        <mxCell id="8I5c6mLCa8-BuqHAruNU-16" value="" style="shape=image;html=1;verticalAlign=top;verticalLabelPosition=bottom;labelBackgroundColor=#ffffff;imageAspect=0;aspect=fixed;image=https://cdn1.iconfinder.com/data/icons/smartphone-signal-5g-trading/64/Smartphone_NFC-128.png" vertex="1" parent="1">
          <mxGeometry x="-60" y="233.6" width="21.6" height="21.6" as="geometry" />
        </mxCell>
        <mxCell id="8I5c6mLCa8-BuqHAruNU-17" value="" style="shape=flexArrow;endArrow=classic;html=1;rounded=0;" edge="1" parent="1">
          <mxGeometry width="50" height="50" relative="1" as="geometry">
            <mxPoint x="-30" y="240" as="sourcePoint" />
            <mxPoint x="110" y="240" as="targetPoint" />
          </mxGeometry>
        </mxCell>
        <mxCell id="8I5c6mLCa8-BuqHAruNU-18" value="&lt;b&gt;Delivery identification&lt;/b&gt;" style="text;html=1;align=center;verticalAlign=middle;resizable=0;points=[];autosize=1;strokeColor=none;fillColor=none;" vertex="1" parent="1">
          <mxGeometry x="-35" y="198.6" width="150" height="30" as="geometry" />
        </mxCell>
        <mxCell id="8I5c6mLCa8-BuqHAruNU-20" value="&lt;b&gt;Valid identification&lt;/b&gt;" style="text;html=1;align=center;verticalAlign=middle;resizable=0;points=[];autosize=1;strokeColor=none;fillColor=none;rotation=-15;" vertex="1" parent="1">
          <mxGeometry x="260" y="167" width="130" height="30" as="geometry" />
        </mxCell>
        <mxCell id="8I5c6mLCa8-BuqHAruNU-27" value="" style="shape=flexArrow;endArrow=classic;html=1;rounded=0;" edge="1" parent="1">
          <mxGeometry width="50" height="50" relative="1" as="geometry">
            <mxPoint x="414" y="127.9" as="sourcePoint" />
            <mxPoint x="204" y="182.50000000000003" as="targetPoint" />
          </mxGeometry>
        </mxCell>
        <mxCell id="8I5c6mLCa8-BuqHAruNU-28" value="&lt;b&gt;Yes / No&lt;/b&gt;" style="text;html=1;align=center;verticalAlign=middle;resizable=0;points=[];autosize=1;strokeColor=none;fillColor=none;rotation=-15;" vertex="1" parent="1">
          <mxGeometry x="274" y="127" width="70" height="30" as="geometry" />
        </mxCell>
        <mxCell id="8I5c6mLCa8-BuqHAruNU-29" value="" style="shape=flexArrow;endArrow=classic;html=1;rounded=0;" edge="1" parent="1">
          <mxGeometry width="50" height="50" relative="1" as="geometry">
            <mxPoint x="220" y="224.8" as="sourcePoint" />
            <mxPoint x="430" y="170.2" as="targetPoint" />
          </mxGeometry>
        </mxCell>
        <mxCell id="8I5c6mLCa8-BuqHAruNU-34" value="&lt;b&gt;Valid identification&lt;/b&gt;" style="text;html=1;align=center;verticalAlign=middle;resizable=0;points=[];autosize=1;strokeColor=none;fillColor=none;rotation=15;flipV=1;" vertex="1" parent="1">
          <mxGeometry x="244" y="320.7" width="130" height="30" as="geometry" />
        </mxCell>
        <mxCell id="8I5c6mLCa8-BuqHAruNU-35" value="" style="shape=flexArrow;endArrow=classic;html=1;rounded=0;" edge="1" parent="1">
          <mxGeometry width="50" height="50" relative="1" as="geometry">
            <mxPoint x="420" y="342.70000000000016" as="sourcePoint" />
            <mxPoint x="210" y="288.10000000000014" as="targetPoint" />
          </mxGeometry>
        </mxCell>
        <mxCell id="8I5c6mLCa8-BuqHAruNU-36" value="&lt;b&gt;Yes / No&lt;/b&gt;" style="text;html=1;align=center;verticalAlign=middle;resizable=0;points=[];autosize=1;strokeColor=none;fillColor=none;rotation=14;flipV=0;" vertex="1" parent="1">
          <mxGeometry x="280" y="286" width="70" height="30" as="geometry" />
        </mxCell>
        <mxCell id="8I5c6mLCa8-BuqHAruNU-37" value="" style="shape=flexArrow;endArrow=classic;html=1;rounded=0;" edge="1" parent="1">
          <mxGeometry width="50" height="50" relative="1" as="geometry">
            <mxPoint x="204" y="323.6999999999998" as="sourcePoint" />
            <mxPoint x="414" y="378.29999999999984" as="targetPoint" />
          </mxGeometry>
        </mxCell>
        <mxCell id="8I5c6mLCa8-BuqHAruNU-38" value="" style="shape=flexArrow;endArrow=classic;html=1;rounded=0;" edge="1" parent="1">
          <mxGeometry width="50" height="50" relative="1" as="geometry">
            <mxPoint x="210" y="250" as="sourcePoint" />
            <mxPoint x="600" y="260" as="targetPoint" />
          </mxGeometry>
        </mxCell>
        <mxCell id="8I5c6mLCa8-BuqHAruNU-41" value="" style="shape=flexArrow;endArrow=classic;html=1;rounded=0;" edge="1" parent="1">
          <mxGeometry width="50" height="50" relative="1" as="geometry">
            <mxPoint x="477.16" y="252.5" as="sourcePoint" />
            <mxPoint x="477.16" y="212.5" as="targetPoint" />
          </mxGeometry>
        </mxCell>
        <mxCell id="8I5c6mLCa8-BuqHAruNU-42" value="&lt;b&gt;Report states changes&lt;/b&gt;" style="text;html=1;align=center;verticalAlign=middle;resizable=0;points=[];autosize=1;strokeColor=none;fillColor=none;" vertex="1" parent="1">
          <mxGeometry x="272.9" y="225.2" width="150" height="30" as="geometry" />
        </mxCell>
      </root>
    </mxGraphModel>
  </diagram>
</mxfile>
